<svg xmlns="http://www.w3.org/2000/svg" viewBox="0 0 64 64">
  <path fill="#FFF" d="M47.1329184,5.24561735 L42.9213817,0.895500298 C42.3439061,0.29857479 41.6415856,0 40.8160472,0 C39.9897495,0 39.287429,0.29857479 38.7099534,0.895500298 L18.3948314,21.9107961 L9.290263,12.4746004 C8.71213663,11.8774508 8.01025,11.5792121 7.18471158,11.5792121 C6.35863082,11.5792121 5.65674419,11.8774508 5.07861781,12.4746004 L0.86708109,16.8248294 C0.288954719,17.421867 0,18.1470732 0,19.0002241 C0,19.8527027 0.288954719,20.5785812 0.86708109,21.1755067 L12.0772009,32.7542706 L16.289063,37.1043877 C16.866864,37.7017613 17.5689676,38 18.3948314,38 C19.2203698,38 19.9224734,37.7009771 20.5005997,37.1043877 L24.7123534,32.7542706 L47.1329184,9.5960705 C47.7105025,8.99892092 47.9999995,8.27382672 47.9999995,7.42067587 C48.0004334,6.56797316 47.7105025,5.84276692 47.1329184,5.24561735 Z" transform="translate(8 12)"/>
</svg>
