<svg id="sms" xmlns="http://www.w3.org/2000/svg" width="64.516" height="80" viewBox="0 0 64.516 80">
  <path id="Контур_27" data-name="Контур 27" d="M131.871,416a3.871,3.871,0,1,0,3.871,3.871A3.876,3.876,0,0,0,131.871,416Zm0,5.161a1.29,1.29,0,1,1,1.29-1.29A1.292,1.292,0,0,1,131.871,421.161Zm0,0" transform="translate(-107.355 -348.903)" fill="#282828"/>
  <path id="Контур_28" data-name="Контур 28" d="M120,32h10.323v2.581H120Zm0,0" transform="translate(-100.645 -26.839)" fill="#282828"/>
  <path id="Контур_29" data-name="Контур 29" d="M63.226,15.484H49.032V6.452A6.459,6.459,0,0,0,42.581,0H6.452A6.459,6.459,0,0,0,0,6.452v67.1A6.459,6.459,0,0,0,6.452,80H42.581a6.459,6.459,0,0,0,6.452-6.452V41.29H63.226A1.29,1.29,0,0,0,64.516,40V16.774A1.29,1.29,0,0,0,63.226,15.484ZM45.161,30.559,30.585,18.065H59.738ZM28.387,19.579l9.319,7.987-9.319,9.319Zm12.9-4.1H27.1a1.29,1.29,0,0,0-1.29,1.29V40a1.29,1.29,0,0,0,1.29,1.29H41.29V61.935H7.742V12.9H41.29ZM30.212,38.71l9.459-9.459,4.65,3.986a1.287,1.287,0,0,0,1.68,0l4.65-3.986,9.459,9.458Zm22.4-11.144,9.319-7.987V36.885ZM46.452,73.548a3.876,3.876,0,0,1-3.871,3.871H6.452a3.876,3.876,0,0,1-3.871-3.871V6.452A3.876,3.876,0,0,1,6.452,2.581H42.581a3.876,3.876,0,0,1,3.871,3.871v9.032H43.871V11.613a1.29,1.29,0,0,0-1.29-1.29H6.452a1.29,1.29,0,0,0-1.29,1.29V63.226a1.29,1.29,0,0,0,1.29,1.29H42.581a1.29,1.29,0,0,0,1.29-1.29V41.29h2.581Zm0,0" fill="#282828"/>
  <path id="Контур_30" data-name="Контур 30" d="M71.742,287.484H76.9a7.75,7.75,0,0,0,7.742-7.742V273.29a1.29,1.29,0,0,0-1.29-1.29H71.742a7.742,7.742,0,1,0,0,15.484Zm0-12.9H82.065v5.161A5.166,5.166,0,0,1,76.9,284.9H71.742a5.161,5.161,0,0,1,0-10.323Zm0,0" transform="translate(-53.677 -228.129)" fill="#282828"/>
  <path id="Контур_31" data-name="Контур 31" d="M96,312h2.581v2.581H96Zm0,0" transform="translate(-80.516 -261.677)" fill="#282828"/>
  <path id="Контур_32" data-name="Контур 32" d="M128,312h2.581v2.581H128Zm0,0" transform="translate(-107.355 -261.677)" fill="#282828"/>
</svg>
