<svg id="facebook" xmlns="http://www.w3.org/2000/svg" width="80" height="80" viewBox="0 0 80 80">
  <g id="Сгруппировать_47" data-name="Сгруппировать 47" transform="translate(38.438 58.646)">
    <g id="Сгруппировать_46" data-name="Сгруппировать 46">
      <path id="Контур_22" data-name="Контур 22" d="M247.563,375.333A1.562,1.562,0,0,0,246,376.9v.025a1.563,1.563,0,0,0,3.125,0V376.9A1.562,1.562,0,0,0,247.563,375.333Z" transform="translate(-246 -375.333)" fill="#282828"/>
    </g>
  </g>
  <g id="Сгруппировать_49" data-name="Сгруппировать 49">
    <g id="Сгруппировать_48" data-name="Сгруппировать 48">
      <path id="Контур_23" data-name="Контур 23" d="M64.688,0H15.313A15.33,15.33,0,0,0,0,15.313V64.688A15.33,15.33,0,0,0,15.313,80H40a1.562,1.562,0,0,0,1.563-1.562V66.328a1.563,1.563,0,0,0-3.125,0V76.875H15.313A12.2,12.2,0,0,1,3.125,64.688V15.313A12.2,12.2,0,0,1,15.313,3.125H64.688A12.2,12.2,0,0,1,76.875,15.313V64.688A12.2,12.2,0,0,1,64.688,76.875h-10V49.3h9.06A1.563,1.563,0,0,0,65.3,47.891l1.124-11.165a1.562,1.562,0,0,0-1.555-1.719H54.688V29.145c0-1.061.338-1.456,1.247-1.456H64.8a1.562,1.562,0,0,0,1.563-1.562V15.242A1.562,1.562,0,0,0,64.8,13.68H53.157c-6.6,0-10.1,2.9-11.869,5.329a16.445,16.445,0,0,0-2.85,9.505v6.564H30.781a1.562,1.562,0,0,0-1.562,1.563V47.734A1.562,1.562,0,0,0,30.781,49.3h7.656V53.75a1.563,1.563,0,0,0,3.125,0V47.734A1.562,1.562,0,0,0,40,46.172H32.344V38.2H40a1.562,1.562,0,0,0,1.563-1.562V28.513c0-3.521,1.13-11.709,11.595-11.709H63.238v7.759h-7.3a4.2,4.2,0,0,0-4.372,4.581V36.57a1.562,1.562,0,0,0,1.563,1.563H63.143l-.809,8.04H53.125a1.562,1.562,0,0,0-1.562,1.563v30.7A1.562,1.562,0,0,0,53.125,80H64.688A15.33,15.33,0,0,0,80,64.688V15.313A15.33,15.33,0,0,0,64.688,0Z" fill="#282828"/>
    </g>
  </g>
</svg>
