<svg id="instagram" xmlns="http://www.w3.org/2000/svg" width="80" height="80" viewBox="0 0 80 80">
  <g id="Сгруппировать_51" data-name="Сгруппировать 51">
    <g id="Сгруппировать_50" data-name="Сгруппировать 50">
      <path id="Контур_24" data-name="Контур 24" d="M67.826,0H12.174A12.187,12.187,0,0,0,0,12.174V67.826A12.188,12.188,0,0,0,12.174,80v-.158c1.421.158,4,.158,8.7.158H67.826A12.188,12.188,0,0,0,80,67.826V12.174A12.188,12.188,0,0,0,67.826,0Zm8.7,67.826a8.706,8.706,0,0,1-8.7,8.7H12.174a8.706,8.706,0,0,1-8.7-8.7V12.174a8.706,8.706,0,0,1,8.7-8.7H67.826a8.706,8.706,0,0,1,8.7,8.7Z" fill="#282828"/>
    </g>
  </g>
  <g id="Сгруппировать_53" data-name="Сгруппировать 53" transform="translate(13.913 13.913)">
    <g id="Сгруппировать_52" data-name="Сгруппировать 52">
      <path id="Контур_25" data-name="Контур 25" d="M90.087,64a26.087,26.087,0,1,0,26.087,26.087A26.117,26.117,0,0,0,90.087,64Zm0,48.7A22.609,22.609,0,1,1,112.7,90.087,22.635,22.635,0,0,1,90.087,112.7Z" transform="translate(-64 -64)" fill="#282828"/>
    </g>
  </g>
  <g id="Сгруппировать_55" data-name="Сгруппировать 55" transform="translate(24.184 24.266)">
    <g id="Сгруппировать_54" data-name="Сгруппировать 54">
      <path id="Контур_26" data-name="Контур 26" d="M126.982,111.624a15.734,15.734,0,1,0,15.734,15.734A15.753,15.753,0,0,0,126.982,111.624Zm0,27.99a12.256,12.256,0,1,1,12.256-12.256A12.269,12.269,0,0,1,126.982,139.614Z" transform="translate(-111.248 -111.624)" fill="#282828"/>
    </g>
  </g>
  <g id="Сгруппировать_57" data-name="Сгруппировать 57" transform="translate(62.609 10.435)">
    <g id="Сгруппировать_56" data-name="Сгруппировать 56">
      <circle id="Эллипс_10" data-name="Эллипс 10" cx="3.478" cy="3.478" r="3.478" fill="#282828"/>
    </g>
  </g>
</svg>
