<svg id="tick-mark" xmlns="http://www.w3.org/2000/svg" width="80" height="80" viewBox="0 0 80 80">
  <g id="Сгруппировать_58" data-name="Сгруппировать 58" transform="translate(0 6.667)">
    <path id="Контур_35" data-name="Контур 35" d="M28.333,58.667h-20A8.343,8.343,0,0,1,0,50.333v-40A8.343,8.343,0,0,1,8.333,2h50a8.343,8.343,0,0,1,8.333,8.333V23.667a1.667,1.667,0,1,1-3.333,0V10.333a5.006,5.006,0,0,0-5-5h-50a5.006,5.006,0,0,0-5,5v40a5.006,5.006,0,0,0,5,5h20a1.667,1.667,0,1,1,0,3.333Z" transform="translate(0 -2)" fill="#282828"/>
  </g>
  <g id="Сгруппировать_59" data-name="Сгруппировать 59" transform="translate(0 20)">
    <path id="Контур_36" data-name="Контур 36" d="M65,9.333H1.667A1.667,1.667,0,1,1,1.667,6H65a1.667,1.667,0,0,1,0,3.333Z" transform="translate(0 -6)" fill="#282828"/>
  </g>
  <g id="Сгруппировать_60" data-name="Сгруппировать 60" transform="translate(13.333)">
    <path id="Контур_37" data-name="Контур 37" d="M5.667,16.667A1.667,1.667,0,0,1,4,15V1.667a1.667,1.667,0,1,1,3.333,0V15A1.667,1.667,0,0,1,5.667,16.667Z" transform="translate(-4)" fill="#282828"/>
  </g>
  <g id="Сгруппировать_61" data-name="Сгруппировать 61" transform="translate(50)">
    <path id="Контур_38" data-name="Контур 38" d="M16.667,16.667A1.667,1.667,0,0,1,15,15V1.667a1.667,1.667,0,1,1,3.333,0V15A1.667,1.667,0,0,1,16.667,16.667Z" transform="translate(-15)" fill="#282828"/>
  </g>
  <g id="Сгруппировать_62" data-name="Сгруппировать 62" transform="translate(46.666 49.999)">
    <path id="Контур_39" data-name="Контур 39" d="M22.334,31.667a1.679,1.679,0,0,1-1.18-.487l-6.667-6.667a1.666,1.666,0,0,1,2.357-2.357l5.407,5.407L32.744,15.57a1.666,1.666,0,1,1,2.507,2.2L23.584,31.1a1.656,1.656,0,0,1-1.2.567h-.053Z" transform="translate(-14 -15)" fill="#282828"/>
  </g>
  <g id="Сгруппировать_63" data-name="Сгруппировать 63" transform="translate(36.667 36.667)">
    <path id="Контур_40" data-name="Контур 40" d="M32.667,54.333A21.667,21.667,0,1,1,54.333,32.667,21.692,21.692,0,0,1,32.667,54.333Zm0-40A18.333,18.333,0,1,0,51,32.667,18.355,18.355,0,0,0,32.667,14.333Z" transform="translate(-11 -11)" fill="#282828"/>
  </g>
</svg>
