<svg xmlns="http://www.w3.org/2000/svg" width="80" height="80" viewBox="0 0 80 80">
  <g id="Сгруппировать_92" data-name="Сгруппировать 92" transform="translate(-949.867 -1169.867)">
    <g id="shopping-bag" transform="translate(949.867 1169.867)">
      <g id="Сгруппировать_4" data-name="Сгруппировать 4" transform="translate(0 14.539)">
        <g id="Сгруппировать_3" data-name="Сгруппировать 3">
          <path id="Контур_1" data-name="Контур 1" d="M68.335,106.667H1.454A1.454,1.454,0,0,0,0,108.121v43.618a10.189,10.189,0,0,0,10.178,10.178H59.611a10.189,10.189,0,0,0,10.177-10.178V108.121A1.454,1.454,0,0,0,68.335,106.667Zm-1.454,45.072a7.276,7.276,0,0,1-7.27,7.27H10.178a7.276,7.276,0,0,1-7.27-7.27V109.575H66.881Z" transform="translate(0 -106.667)" fill="#282828"/>
        </g>
      </g>
      <g id="Сгруппировать_6" data-name="Сгруппировать 6" transform="translate(20.355 0)">
        <g id="Сгруппировать_5" data-name="Сгруппировать 5">
          <path id="Контур_2" data-name="Контур 2" d="M163.872,0a14.556,14.556,0,0,0-14.539,14.539V24.717a1.454,1.454,0,0,0,2.908,0V14.539a11.631,11.631,0,1,1,23.263,0V24.717a1.454,1.454,0,0,0,2.908,0V14.539A14.556,14.556,0,0,0,163.872,0Z" transform="translate(-149.333 0)" fill="#282828"/>
        </g>
      </g>
      <g id="Сгруппировать_8" data-name="Сгруппировать 8" transform="translate(17.447 23.263)">
        <g id="Сгруппировать_7" data-name="Сгруппировать 7">
          <path id="Контур_3" data-name="Контур 3" d="M132.362,170.667a4.362,4.362,0,1,0,4.362,4.362A4.367,4.367,0,0,0,132.362,170.667Zm0,5.816a1.454,1.454,0,1,1,1.454-1.454A1.458,1.458,0,0,1,132.362,176.483Z" transform="translate(-128 -170.667)" fill="#282828"/>
        </g>
      </g>
      <g id="Сгруппировать_10" data-name="Сгруппировать 10" transform="translate(43.618 23.263)">
        <g id="Сгруппировать_9" data-name="Сгруппировать 9">
          <path id="Контур_4" data-name="Контур 4" d="M324.362,170.667a4.362,4.362,0,1,0,4.362,4.362A4.367,4.367,0,0,0,324.362,170.667Zm0,5.816a1.454,1.454,0,1,1,1.454-1.454A1.458,1.458,0,0,1,324.362,176.483Z" transform="translate(-320 -170.667)" fill="#282828"/>
        </g>
      </g>
    </g>
    <g id="Эллипс_1" data-name="Эллипс 1" transform="translate(990.867 1210.867)" fill="#fbf9f5" stroke="#282828" stroke-width="3">
      <circle cx="19.5" cy="19.5" r="19.5" stroke="none"/>
      <circle cx="19.5" cy="19.5" r="18" fill="none"/>
    </g>
    <text id="_" data-name="$" transform="translate(1010.867 1238.867)" fill="#282828" font-size="24" font-family="SegoeUI-Semibold, Segoe UI" font-weight="600" letter-spacing="0.025em"><tspan x="-6.662" y="0">$</tspan></text>
  </g>
</svg>
