<svg id="refer" xmlns="http://www.w3.org/2000/svg" width="80" height="80" viewBox="0 0 80 80">
  <g id="Сгруппировать_64" data-name="Сгруппировать 64" transform="translate(0 0)">
    <path id="Контур_41" data-name="Контур 41" d="M73.69,35.015a12.6,12.6,0,0,0,6.163-6.1,1.562,1.562,0,0,0-.055-1.43,45.192,45.192,0,0,1-4.351-10.723l-.828-3.15A18.249,18.249,0,0,0,40.267,10.9l-.054-.038a1.562,1.562,0,0,0-1.293-.228,32.664,32.664,0,0,1-8.36,1.083A13.9,13.9,0,0,0,16.672,25.6v8.486a13.9,13.9,0,0,0,7.382,12.266v1.79H21.26A21.284,21.284,0,0,0,0,69.4v9.033A1.562,1.562,0,0,0,1.562,80H23.517a1.562,1.562,0,1,0,0-3.125H3.125V69.4A18.155,18.155,0,0,1,21.26,51.269h2.852a6.5,6.5,0,0,0,12.894,0h2.855a20,20,0,0,1,6.274,1.144l-.7.852a1.562,1.562,0,0,0,1.209,2.552h3.827a19.306,19.306,0,0,1-9.257,15.036,1.562,1.562,0,0,0,.814,2.9h.051a23.424,23.424,0,0,0,14.587-5.737c.4-.348.784-.712,1.157-1.085A18.307,18.307,0,0,1,58,69.4v7.471H37.58a1.563,1.563,0,0,0,0,3.125h21.98a1.562,1.562,0,0,0,1.563-1.562V69.4a21.3,21.3,0,0,0-.726-5.519,23.417,23.417,0,0,0,3.665-8.067l14.376.013A1.562,1.562,0,0,0,80,54.269V46.308a13.275,13.275,0,0,0-6.31-11.293ZM47.979,6.088A15.123,15.123,0,0,1,71.6,14.4l.828,3.15a48.317,48.317,0,0,0,4.241,10.722,9.489,9.489,0,0,1-8.205,4.763l-6.09,0V30.484a11.816,11.816,0,0,0,5.866-10.221,7.893,7.893,0,0,0-4.458-7.091,6.921,6.921,0,0,1-3.149-2.906,6.527,6.527,0,0,0,.31-.605,1.562,1.562,0,0,0-2.851-1.279,3.421,3.421,0,0,1-2.122,1.872l-6.528,1.993a5.7,5.7,0,0,0-4.018,4.766,15.645,15.645,0,0,0-2.66-3.938,15,15,0,0,1,5.219-6.988ZM56.9,31.978a12,12,0,0,0,2.343-.269v3.174a2.44,2.44,0,0,1-4.879,0V31.718a12.468,12.468,0,0,0,2.536.262c.065,0-.066,0,0,0Zm.046-3.125a8.306,8.306,0,0,1-8.448-8.3V17.735a2.6,2.6,0,0,1,1.85-2.5l6.528-1.993a6.54,6.54,0,0,0,1.5-.677,10.039,10.039,0,0,0,4.087,3.444,4.718,4.718,0,0,1,2.64,4.252A8.492,8.492,0,0,1,56.949,28.854Zm-5.707,1.683v2.5H44.447v-.72a15.626,15.626,0,0,0,2.34-6.258,11.516,11.516,0,0,0,4.455,4.477Zm-20.682-15.7a35.839,35.839,0,0,0,8.428-1,12.67,12.67,0,0,1,4.34,13.469,8.919,8.919,0,0,0-7.874-5.055H25.665a8.544,8.544,0,0,0-5.818,2.329,10.777,10.777,0,0,1,10.713-9.741Zm3.381,35.568a3.381,3.381,0,0,1-6.762,0V47.558a13.915,13.915,0,0,0,6.762,0v2.848ZM30.559,44.85A10.775,10.775,0,0,1,19.8,34.087V32.019c0-3.663,2.632-6.644,5.868-6.644h9.789c3.236,0,5.868,2.98,5.868,6.644v2.069A10.775,10.775,0,0,1,30.559,44.85Zm9.3,3.294h-2.8V46.354a13.931,13.931,0,0,0,7.151-9.741,10.116,10.116,0,0,1,2.922-.45h4.254a5.576,5.576,0,0,0,4.8,4.25,1.562,1.562,0,0,0-.6.447l-7.369,9A23.628,23.628,0,0,0,39.862,48.144Zm22.931,4.549a1.563,1.563,0,0,0-1.538,1.286A20.267,20.267,0,0,1,47.606,69.633,22.492,22.492,0,0,0,53.66,54.255,1.563,1.563,0,0,0,52.1,52.693H49.946L56.8,44.317l6.859,8.376h-.871Zm14.082.013H67.713l-9.7-11.846a1.56,1.56,0,0,0-.6-.447,5.576,5.576,0,0,0,4.808-4.251H66.8A10.158,10.158,0,0,1,76.875,46.308Z" transform="translate(0 0)" fill="#282828"/>
    <circle id="Эллипс_11" data-name="Эллипс 11" cx="1.562" cy="1.562" r="1.562" transform="translate(28.998 76.875)" fill="#282828"/>
  </g>
</svg>
