<svg xmlns="http://www.w3.org/2000/svg" width="80.5" height="70.813" viewBox="0 0 80.5 70.813">
  <g id="review" transform="translate(0.25 -30.75)">
    <path id="Контур_16" data-name="Контур 16" d="M79.141,37.68A10.927,10.927,0,0,0,69.063,31H10.938A10.927,10.927,0,0,0,0,41.938V99.75a1.561,1.561,0,0,0,1.561,1.562h0a1.551,1.551,0,0,0,1.1-.458l13.6-13.6H69.063A10.927,10.927,0,0,0,80,76.313V64.369a1.563,1.563,0,0,0-3.125,0V76.313a7.813,7.813,0,0,1-7.812,7.813H15.625a1.571,1.571,0,0,0-1.1.458l-11.4,11.4V41.938a7.81,7.81,0,0,1,7.813-7.812H69.063a7.81,7.81,0,0,1,7.813,7.812v8.369a1.563,1.563,0,0,0,3.125,0V41.938A10.874,10.874,0,0,0,79.141,37.68Z" fill="#282828" stroke="#fbf9f5" stroke-width="0.5"/>
    <circle id="Эллипс_8" data-name="Эллипс 8" cx="1.563" cy="1.563" r="1.563" transform="translate(76.875 55.775)" fill="#282828" stroke="#fbf9f5" stroke-width="0.5"/>
    <circle id="Эллипс_9" data-name="Эллипс 9" cx="1.563" cy="1.563" r="1.563" transform="translate(65.117 66.937)" fill="#282828" stroke="#fbf9f5" stroke-width="0.5"/>
    <path id="Контур_17" data-name="Контур 17" d="M124.7,262.563A1.565,1.565,0,0,0,123.141,261H76.813a1.563,1.563,0,0,0,0,3.125h46.328A1.565,1.565,0,0,0,124.7,262.563Z" transform="translate(-63.492 -194.063)" fill="#282828" stroke="#fbf9f5" stroke-width="0.5"/>
    <path id="Контур_18" data-name="Контур 18" d="M214.678,77.466a1.563,1.563,0,0,0-1.278-1.08l-4.6-.632L206.76,71.84a1.562,1.562,0,0,0-2.771,0l-2.041,3.914-4.6.632a1.563,1.563,0,0,0-.847,2.7l3.275,3.021-.769,4.243a1.562,1.562,0,0,0,2.233,1.677l4.132-2.056,4.132,2.056a1.562,1.562,0,0,0,2.233-1.677l-.769-4.243,3.275-3.021A1.563,1.563,0,0,0,214.678,77.466Zm-6.456,2.923a1.563,1.563,0,0,0-.478,1.427l.367,2.023-2.04-1.015a1.562,1.562,0,0,0-1.392,0l-2.04,1.015.367-2.023a1.563,1.563,0,0,0-.478-1.427l-1.472-1.358,2.118-.291a1.562,1.562,0,0,0,1.173-.825l1.029-1.973,1.029,1.973a1.562,1.562,0,0,0,1.173.825l2.118.291Z" transform="translate(-165.375 -33.75)" fill="#282828" stroke="#fbf9f5" stroke-width="0.5"/>
    <path id="Контур_19" data-name="Контур 19" d="M354.678,77.466a1.563,1.563,0,0,0-1.278-1.08l-4.6-.632L346.76,71.84a1.562,1.562,0,0,0-2.771,0l-2.041,3.914-4.6.632a1.563,1.563,0,0,0-.847,2.7l3.275,3.021-.769,4.243a1.562,1.562,0,0,0,2.233,1.677l4.132-2.056,4.132,2.056a1.562,1.562,0,0,0,2.233-1.677l-.769-4.243,3.275-3.021A1.562,1.562,0,0,0,354.678,77.466Zm-6.456,2.923a1.563,1.563,0,0,0-.478,1.427l.367,2.023-2.04-1.015a1.562,1.562,0,0,0-1.392,0l-2.04,1.015.367-2.023a1.563,1.563,0,0,0-.478-1.427l-1.472-1.358,2.118-.291a1.562,1.562,0,0,0,1.172-.825l1.029-1.973,1.029,1.973a1.562,1.562,0,0,0,1.172.825l2.118.291Z" transform="translate(-283.5 -33.75)" fill="#282828" stroke="#fbf9f5" stroke-width="0.5"/>
    <path id="Контур_20" data-name="Контур 20" d="M59.607,87.874a1.562,1.562,0,0,0,1.634.15l4.132-2.056,4.132,2.056a1.562,1.562,0,0,0,2.233-1.678L70.971,82.1l3.275-3.021a1.563,1.563,0,0,0-.847-2.7l-4.6-.632L66.759,71.84a1.562,1.562,0,0,0-2.771,0l-2.041,3.914-4.6.632a1.563,1.563,0,0,0-.847,2.7L59.777,82.1l-.769,4.243a1.563,1.563,0,0,0,.6,1.528Zm3.565-9.135a1.562,1.562,0,0,0,1.172-.825l1.029-1.973L66.4,77.914a1.562,1.562,0,0,0,1.173.825l2.118.291-1.472,1.358a1.563,1.563,0,0,0-.478,1.427l.367,2.023-2.04-1.015a1.562,1.562,0,0,0-1.392,0l-2.04,1.015.367-2.023a1.563,1.563,0,0,0-.478-1.427l-1.472-1.358Z" transform="translate(-47.249 -33.75)" fill="#282828" stroke="#fbf9f5" stroke-width="0.5"/>
    <path id="Контур_21" data-name="Контур 21" d="M130.172,221H76.813a1.562,1.562,0,1,0,0,3.125h53.359a1.562,1.562,0,1,0,0-3.125Z" transform="translate(-63.492 -160.313)" fill="#282828" stroke="#fbf9f5" stroke-width="0.5"/>
  </g>
</svg>
