<svg xmlns="http://www.w3.org/2000/svg" width="74.672" height="80" viewBox="0 0 74.672 80">
  <g id="add-user" transform="translate(-32 -15.986)">
    <path id="Контур_33" data-name="Контур 33" d="M305.333,332h8v8A1.333,1.333,0,0,0,316,340v-8h8a1.333,1.333,0,0,0,0-2.667h-8v-8a1.333,1.333,0,0,0-2.667,0v8h-8a1.333,1.333,0,0,0,0,2.667Z" transform="translate(-226.664 -253.342)" fill="#282828"/>
    <path id="Контур_34" data-name="Контур 34" d="M32.695,82.5c.611.333,15.136,8.163,29.973,8.163A55.376,55.376,0,0,0,73.84,89.472,18.664,18.664,0,1,0,88,58.657c-.357,0-.711.011-1.063.031A29.482,29.482,0,0,0,69.92,46.25a16,16,0,1,0-14.5,0,28.941,28.941,0,0,0-14.5,9.129C35.168,61.981,32,71.194,32,81.325a1.333,1.333,0,0,0,.695,1.171ZM88,61.324a16,16,0,1,1-16,16,16,16,0,0,1,16-16ZM49.334,31.989A13.334,13.334,0,1,1,62.668,45.323,13.334,13.334,0,0,1,49.334,31.989Zm-6.4,25.145A25.932,25.932,0,0,1,83.972,59.1a18.659,18.659,0,0,0-11.87,28,52.02,52.02,0,0,1-9.434.9c-12.365,0-24.933-5.931-27.994-7.474C34.836,71.352,37.753,63.074,42.931,57.135Z" fill="#282828"/>
  </g>
</svg>
