<svg xmlns="http://www.w3.org/2000/svg" width="122" height="41" viewBox="0 0 122 41">
  <g fill="none">
    <path fill="#6B6B6B" d="M4.4,2.9 C24.2,2.5 94,8.2 104.7,10.7 C115.4,13.2 116.6,26.3 116.6,31.7 C116.6,37.1 110.3,38.6 110.3,29.5 C110.3,20.4 109.5,15.5 103.2,14.9 C96.9,14.3 11.3,9.7 5.3,9.5 C-0.7,9.3 0.5,2.6 4.4,2.9 Z"/>
    <path fill="#6B6B6B" d="M118,2.9 C98.2,2.5 28.4,8.2 17.7,10.7 C7,13.1 5.9,26.3 5.9,31.7 C5.9,37.1 12.2,38.6 12.2,29.5 C12.2,20.4 13,15.5 19.3,14.9 C25.6,14.3 111.2,9.7 117.2,9.5 C123.1,9.3 122,2.6 118,2.9 Z"/>
    <path fill="#898989" d="M91.8,40.2 C92.5,40.2 93.1,40.2 93.8,40.1 C109.8,38.9 113.5,32.3 115,23.9 C116.7,14.7 116.7,11.5 119.2,10.6 C121.1,10 121.5,7.9 121.3,5.5 C121.2,3.1 121.1,2.8 117.9,1.8 C115.4,1 101.9,-0.2 91.7,0.4 L91.7,2.9 C99.7,2.5 107.4,3.4 109.7,4.8 C114.9,7.9 113.9,22.7 109.8,30.1 C106.9,35.3 98.9,37.9 91.7,37.9 C91.8,37.8 91.8,40.2 91.8,40.2 Z M61.1,5.2 C57.6,5.3 43,1.4 32.7,0.5 C32,0.4 31.3,0.4 30.6,0.4 L30.6,2.9 C38.9,3.3 47.5,5.1 50.6,9.2 C55.7,16 47.5,32.5 39.7,36.2 C37.3,37.3 34,37.9 30.6,37.9 L30.6,40.2 C44.7,40.4 49.6,31.1 51.2,28 C54.2,22.2 53.3,14.2 61.2,14.2 C69.1,14.2 68.3,22 71.3,27.8 C72.9,30.9 77.7,40.4 91.7,40.2 L91.7,37.9 C88.3,37.9 85,37.3 82.6,36.2 C74.8,32.5 66.6,16 71.7,9.2 C74.8,5.1 83.4,3.3 91.7,2.9 L91.7,0.4 C91,0.4 90.3,0.5 89.6,0.5 C80.5,1.3 69.4,5 61.1,5.2 Z M30.6,0.4 C20.4,-0.2 6.9,1 4.4,1.8 C1.2,2.8 1.2,3.1 1,5.5 C0.8,7.9 1.3,10 3.1,10.6 C5.6,11.4 5.7,14.7 7.3,23.9 C8.8,32.3 12.5,38.9 28.5,40.2 C29.2,40.3 29.9,40.3 30.5,40.3 L30.5,38 C23.3,38 15.2,35.4 12.4,30.2 C8.3,22.8 7.3,8 12.5,4.9 C14.8,3.6 22.5,2.6 30.5,3 C30.6,2.9 30.6,0.4 30.6,0.4 Z"/>
    <path fill="#AAA" d="M12.6,4.7 C17.3,2 44.6,1 50.6,9.1 C55.7,15.9 47.5,32.4 39.7,36.1 C32.2,39.7 16.7,37.7 12.4,30 C8.4,22.7 7.4,7.8 12.6,4.7 L12.6,4.7 Z M109.8,4.7 C105.1,2 77.8,1 71.8,9.1 C66.7,15.9 74.9,32.4 82.7,36.1 C90.2,39.7 105.7,37.7 110,30 C114,22.7 115,7.8 109.8,4.7 Z"/>
  </g>
</svg>
