<svg xmlns="http://www.w3.org/2000/svg" viewBox="0 0 52 52">
    <circle cx="26" cy="26" r="26" fill="#7DCFB6"/>
    <path fill="#FFF" fill-rule="nonzero" d="M38.5664592,20.4847661 L36.4606908,18.4241844 C36.1719531,18.1414302 35.8207928,18 35.4080236,18 C34.9948748,18 34.6437145,18.1414302 34.3549767,18.4241844 L24.1974157,28.3787982 L19.6451315,23.9090212 C19.3560683,23.6261609 19.005125,23.4848899 18.5923558,23.4848899 C18.1793154,23.4848899 17.8283721,23.6261609 17.5393089,23.9090212 L15.4335405,25.9696561 C15.1444774,26.2524633 15,26.5959821 15,27.0001061 C15,27.4039118 15.1444774,27.747749 15.4335405,28.0305032 L21.0386004,33.5151808 L23.1445315,35.5757626 C23.433432,35.858729 23.7844838,36 24.1974157,36 C24.6101849,36 24.9612367,35.8583576 25.2502999,35.5757626 L27.3561767,33.5151808 L38.5664592,22.5455071 C38.8552512,22.2626468 38.9999998,21.9191811 38.9999998,21.515057 C39.0002167,21.1111452 38.8552512,20.7676264 38.5664592,20.4847661 Z"/>
</svg>
