<svg xmlns="http://www.w3.org/2000/svg" width="122" height="41" viewBox="0 0 122 41">
  <g fill="none" fill-rule="evenodd" transform="translate(1)">
    <path fill="#FC5A29" d="M3.432,2.895 C23.241,2.471 92.987,8.222 103.683,10.663 C114.379,13.104 115.569,26.279 115.569,31.65 C115.569,37.023 109.23,38.53 109.23,29.439 C109.23,20.346 108.439,15.421 102.099,14.862 C95.76,14.303 10.166,9.636 4.224,9.474 C-1.718,9.311 -0.529,2.649 3.432,2.895 Z"/>
    <path fill="#FC5A29" d="M116.995,2.895 C97.185,2.471 27.441,8.222 16.743,10.663 C6.047,13.104 4.857,26.278 4.857,31.65 C4.857,37.023 11.197,38.53 11.197,29.439 C11.197,20.346 11.989,15.421 18.328,14.862 C24.666,14.303 110.259,9.636 116.203,9.474 C122.144,9.311 120.957,2.649 116.995,2.895 Z"/>
    <path fill="#F9AF46" d="M90.775,40.164 C91.433,40.155 92.111,40.126 92.812,40.073 C108.777,38.867 112.486,32.223 114.009,23.823 C115.681,14.6 115.704,11.387 118.248,10.539 C120.114,9.917 120.509,7.855 120.368,5.452 C120.226,3.05 120.135,2.792 116.976,1.778 C114.503,0.984 100.956,-0.18 90.774,0.367 L90.774,2.855 C98.769,2.486 106.497,3.397 108.78,4.746 C114.02,7.838 113.005,22.689 108.922,30.04 C106.048,35.212 98.006,37.801 90.775,37.823 L90.775,40.164 L90.775,40.164 Z M60.083,5.17 C56.553,5.248 41.984,1.353 31.681,0.506 C31.014,0.451 30.324,0.406 29.621,0.367 L29.621,2.855 C37.933,3.24 46.541,5.012 49.627,9.126 C54.714,15.91 46.518,32.443 38.746,36.117 C36.314,37.266 33.058,37.835 29.621,37.824 L29.621,40.166 C43.707,40.369 48.571,31.026 50.191,27.921 C53.214,22.126 52.285,14.137 60.197,14.137 C68.109,14.137 67.321,21.985 70.344,27.779 C71.963,30.883 76.699,40.355 90.775,40.164 L90.775,37.823 C87.335,37.834 84.079,37.265 81.649,36.116 C73.877,32.442 65.681,15.909 70.768,9.125 C73.854,5.011 82.459,3.239 90.775,2.854 L90.775,0.366 C90.07,0.404 89.382,0.449 88.714,0.505 C79.493,1.265 68.392,4.987 60.083,5.17 Z M29.621,0.367 C19.437,-0.179 5.89,0.985 3.418,1.779 C0.258,2.793 0.168,3.05 0.026,5.453 C-0.116,7.856 0.279,9.918 2.145,10.54 C4.689,11.388 4.712,14.601 6.385,23.824 C7.908,32.224 11.616,38.868 27.581,40.074 C28.281,40.127 28.96,40.157 29.62,40.166 L29.62,37.824 C22.387,37.802 14.345,35.213 11.472,30.041 C7.388,22.69 6.374,7.839 11.613,4.747 C13.897,3.399 21.623,2.487 29.621,2.856 L29.621,0.367 Z"/>
    <path fill="#76DECB" d="M11.613,4.746 C16.272,1.997 43.572,1.055 49.627,9.126 C54.714,15.91 46.518,32.443 38.746,36.117 C31.203,39.682 15.712,37.672 11.473,30.041 C7.388,22.689 6.375,7.838 11.613,4.746 L11.613,4.746 Z M108.781,4.746 C104.124,1.997 76.821,1.055 70.768,9.126 C65.681,15.91 73.876,32.443 81.649,36.117 C89.191,39.682 104.682,37.672 108.922,30.041 C113.006,22.689 114.021,7.838 108.781,4.746 Z"/>
    <path fill="#D9FFF8" d="M3.145 23.397L39.246 2.48C39.448 2.566 39.628 2.656 39.781 2.746 41.73 3.896 42.813 6.676 43.196 10.09L7.986 30.489C6.16 28.518 4.477 26.039 3.145 23.397zM.637 16.489L27.703.808C30.481.891 33.046 1.119 35.136 1.45L1.929 20.689C1.378 19.286.936 17.871.637 16.489zM10.94 33.11L43.331 14.343C43.264 16.087 43.06 17.884 42.735 19.636L15.866 35.204C14.692 34.931 13.606 34.569 12.649 34.116 12.08 33.847 11.508 33.508 10.94 33.11z" transform="translate(69 2)"/>
    <path fill="#D9FFF8" d="M1.222 22.173L34.529 2.875C37.672 3.867 40.221 5.254 41.626 7.126 41.892 7.479 42.118 7.861 42.313 8.263L4.871 29.956C4.324 29.362 3.852 28.724 3.473 28.04 2.556 26.39 1.794 24.361 1.222 22.173zM.07 14.48L23.404.96C25.797 1.128 28.178 1.417 30.412 1.849L.57 19.138C.306 17.591.136 16.016.07 14.48zM8.026 32.459L43.189 12.086C43.255 13.745 43.016 15.556 42.538 17.412L12.934 34.564C11.161 34.031 9.491 33.33 8.026 32.459z" transform="translate(8 2)"/>
  </g>
</svg>
